<?xml version="1.0" standalone="no"?>
<!DOCTYPE svg PUBLIC "-//W3C//DTD SVG 20010904//EN"
 "http://www.w3.org/TR/2001/REC-SVG-20010904/DTD/svg10.dtd">
<svg version="1.0" xmlns="http://www.w3.org/2000/svg"
 width="300.000000pt" height="300.000000pt" viewBox="0 0 300.000000 300.000000"
 preserveAspectRatio="xMidYMid meet">
<metadata>
Created by potrace 1.16, written by Peter Selinger 2001-2019
</metadata>
<g transform="translate(0.000000,300.000000) scale(0.100000,-0.100000)"
fill="#000000" stroke="none">
<path d="M1870 2923 c-77 -40 -144 -190 -330 -738 -38 -110 -83 -238 -100
-285 -18 -47 -45 -127 -59 -178 l-27 -93 -12 278 c-13 308 -42 590 -72 709
-54 208 -146 314 -275 314 -74 0 -164 -92 -184 -185 -6 -27 -15 -176 -21 -330
-10 -263 -37 -637 -59 -805 -17 -130 -31 -177 -72 -241 -31 -47 -49 -94 -76
-198 -35 -131 -37 -143 -37 -311 -1 -156 2 -183 22 -248 28 -89 73 -160 144
-228 132 -127 289 -196 533 -235 66 -10 165 -29 221 -43 275 -65 435 -36 580
108 75 76 129 161 175 281 30 77 109 342 129 435 7 30 24 71 39 90 108 139
138 267 88 367 -26 51 -71 97 -106 108 -16 5 -18 16 -18 83 1 88 -17 139 -66
191 -73 76 -175 92 -271 42 -31 -17 -56 -27 -56 -23 0 4 36 117 81 252 135
409 166 565 140 692 -14 64 -60 131 -122 174 -53 36 -137 44 -189 17z m174
-60 c60 -42 87 -98 93 -191 7 -103 -19 -221 -103 -482 -36 -113 -86 -270 -111
-349 l-45 -144 -94 -106 c-52 -58 -104 -127 -116 -153 l-22 -48 -128 0 c-182
0 -284 23 -398 90 -46 28 -84 22 -225 -35 -61 -25 -118 -45 -128 -45 -21 0
-21 6 -3 95 34 165 74 638 85 1000 7 255 12 282 54 335 42 54 120 66 178 27
69 -46 132 -191 163 -373 21 -125 46 -527 46 -751 0 -179 1 -191 21 -209 40
-36 70 8 114 167 15 52 41 132 60 179 18 47 61 168 95 270 169 503 228 646
297 719 40 41 45 43 84 38 23 -3 61 -18 83 -34z m156 -1091 c19 -9 50 -39 68
-66 44 -67 45 -148 2 -239 -40 -86 -253 -347 -282 -347 -4 0 -8 33 -7 73 0
165 -46 217 -196 217 -41 0 -75 3 -75 6 0 16 31 58 104 139 194 217 285 268
386 217z m209 -372 c78 -113 40 -241 -119 -402 -69 -70 -102 -94 -163 -123
-125 -59 -222 -57 -290 5 l-32 30 40 35 c22 20 58 48 80 62 83 55 297 284 360
388 40 64 44 67 77 47 17 -9 38 -28 47 -42z m-1264 15 c38 -19 98 -41 134 -49
100 -22 273 -30 371 -16 166 23 191 24 225 6 40 -22 55 -47 62 -105 14 -122
-46 -234 -154 -287 -56 -28 -63 -29 -213 -29 l-155 0 -61 38 c-67 40 -128 51
-122 20 2 -9 17 -20 35 -25 75 -20 129 -123 117 -223 -12 -95 -80 -209 -135
-227 -16 -5 -4 -38 13 -38 21 0 87 59 114 102 38 60 57 149 49 232 l-6 71 133
0 c73 0 147 3 165 7 28 6 37 3 67 -27 69 -67 151 -88 258 -66 53 11 176 68
209 97 16 14 39 19 39 8 0 -13 -73 -265 -97 -334 -36 -106 -111 -245 -160
-301 -60 -66 -125 -105 -222 -130 -82 -23 -84 -23 -206 -6 -68 10 -152 26
-187 37 -35 10 -101 24 -148 30 -155 21 -255 51 -369 111 -189 101 -283 234
-310 439 -14 111 -2 225 43 405 41 161 53 178 142 201 32 9 86 27 119 42 53
22 141 49 171 51 5 1 41 -15 79 -34z"/>
</g>
</svg>
