<?xml version="1.0" standalone="no"?>
<!DOCTYPE svg PUBLIC "-//W3C//DTD SVG 20010904//EN"
 "http://www.w3.org/TR/2001/REC-SVG-20010904/DTD/svg10.dtd">
<svg version="1.0" xmlns="http://www.w3.org/2000/svg"
 width="321.000000pt" height="314.000000pt" viewBox="0 0 321.000000 314.000000"
 preserveAspectRatio="xMidYMid meet">
<metadata>
Created by potrace 1.16, written by Peter Selinger 2001-2019
</metadata>
<g transform="translate(0.000000,314.000000) scale(0.100000,-0.100000)"
fill="#000000" stroke="none">
<path d="M1512 3025 c-47 -34 -84 -142 -101 -300 -6 -49 -20 -236 -31 -415
-11 -179 -24 -363 -30 -410 -5 -47 -10 -116 -11 -155 l0 -70 -35 125 c-116
418 -251 773 -333 875 -40 49 -142 126 -158 120 -7 -2 -13 0 -13 5 0 14 -54
12 -68 -2 -7 -7 -12 -9 -12 -5 0 8 -36 -21 -59 -47 -9 -10 -21 -24 -28 -31 -7
-7 -9 -15 -6 -19 4 -3 1 -6 -5 -6 -6 0 -9 -6 -6 -14 3 -8 2 -16 -3 -19 -17
-11 6 -176 52 -372 105 -451 193 -935 170 -935 -4 0 -37 26 -73 59 -220 193
-377 269 -503 242 -97 -21 -149 -74 -149 -150 0 -101 73 -187 408 -476 141
-122 193 -192 236 -323 43 -129 73 -180 148 -248 62 -56 133 -93 241 -126 74
-22 213 -29 607 -30 229 -1 330 30 435 136 93 94 140 209 190 466 10 47 21 92
26 101 4 9 70 63 146 120 155 117 392 342 460 436 96 135 110 268 35 346 -68
71 -192 13 -472 -222 -146 -122 -276 -218 -284 -210 -5 4 125 329 238 597 153
366 177 571 77 669 -48 48 -71 66 -71 56 0 -4 -5 -2 -12 5 -29 29 -109 0 -182
-67 -94 -87 -210 -331 -349 -736 -82 -239 -108 -305 -118 -299 -5 3 -9 209 -9
467 0 254 -5 502 -10 550 -25 212 -105 317 -249 325 -49 2 -72 -1 -89 -13z
m175 -64 c38 -28 81 -104 88 -157 3 -21 8 -46 11 -54 6 -15 10 -258 16 -842 3
-299 5 -339 20 -354 25 -25 45 -11 75 53 16 32 32 61 38 65 5 4 6 10 3 14 -4
4 -2 16 4 28 7 11 13 24 14 29 1 4 3 10 4 15 1 4 2 10 1 15 0 4 3 7 9 7 5 0 7
7 4 15 -4 8 -1 15 5 15 6 0 8 7 5 15 -4 8 -1 15 7 15 7 0 9 3 6 7 -4 3 -3 11
2 17 5 6 18 40 29 76 59 190 170 480 185 480 4 0 5 5 2 10 -3 6 -1 10 5 10 6
0 8 5 5 10 -3 6 -1 10 6 10 7 0 9 3 6 6 -10 11 58 133 108 194 46 56 94 90
128 90 38 0 84 -31 107 -73 47 -83 23 -257 -69 -501 -23 -61 -46 -113 -52
-117 -6 -3 -10 -10 -10 -15 1 -15 -11 -49 -21 -55 -5 -3 -11 -19 -14 -35 -3
-16 -9 -31 -13 -34 -5 -3 -11 -16 -15 -30 -4 -14 -11 -34 -16 -45 -5 -11 -46
-113 -90 -227 -45 -114 -86 -208 -92 -210 -8 -3 -5 -11 8 -24 19 -20 19 -19
94 24 78 46 189 124 251 177 20 16 44 37 55 45 10 9 60 50 109 92 113 95 206
148 263 148 30 0 44 -5 51 -19 6 -10 7 -21 4 -25 -3 -3 -2 -6 3 -6 11 0 11
-71 0 -89 -4 -6 -4 -15 -1 -21 3 -5 1 -10 -6 -10 -7 0 -10 -3 -6 -6 20 -20
-81 -154 -217 -289 -115 -114 -289 -258 -300 -248 -3 4 -6 2 -6 -4 0 -6 -33
-36 -74 -67 l-73 -56 -27 -138 c-53 -271 -108 -391 -216 -465 -94 -64 -127
-69 -465 -73 -232 -3 -321 0 -394 12 -145 23 -263 76 -333 151 -32 34 -78 119
-78 144 0 11 -4 19 -10 19 -5 0 -10 11 -10 24 0 14 -5 28 -11 32 -6 3 -9 17
-6 30 2 14 -1 25 -10 28 -8 3 -11 10 -8 16 3 5 1 10 -5 10 -6 0 -8 4 -5 10 3
5 2 10 -3 10 -5 0 -13 10 -19 23 -18 39 -113 136 -253 257 -167 145 -281 262
-307 315 -26 54 -18 111 20 139 22 16 45 21 105 23 73 2 81 0 152 -38 97 -53
184 -115 290 -208 47 -42 87 -78 90 -82 3 -4 21 -16 40 -28 30 -18 51 -21 141
-21 233 0 375 -94 422 -280 11 -43 19 -56 36 -58 79 -12 -11 204 -120 286 -26
21 -48 43 -48 50 -1 7 -6 10 -11 7 -6 -4 -22 0 -35 9 -41 27 -135 46 -230 46
-135 0 -131 -2 -139 90 -4 43 -18 142 -31 221 -14 79 -27 160 -29 179 -3 19
-10 55 -16 80 -6 25 -13 65 -16 90 -2 24 -10 47 -16 51 -6 4 -7 12 -3 18 4 7
2 18 -4 25 -6 7 -9 20 -5 29 3 8 1 18 -5 21 -6 4 -8 13 -5 20 3 8 1 17 -5 20
-6 4 -8 13 -4 21 3 9 0 21 -6 29 -6 7 -9 21 -5 30 4 9 1 16 -6 16 -8 0 -10 9
-6 25 4 15 2 25 -4 25 -7 0 -9 8 -5 20 4 12 2 20 -5 20 -7 0 -10 8 -7 20 3 11
1 20 -4 20 -5 0 -6 12 -3 26 4 17 3 25 -3 21 -12 -8 -43 126 -43 185 0 101 53
175 117 165 134 -22 245 -211 367 -622 15 -49 30 -97 33 -105 3 -8 8 -24 10
-34 2 -11 8 -25 13 -31 5 -7 7 -15 3 -18 -3 -4 0 -13 6 -21 7 -8 10 -19 7 -24
-3 -5 1 -19 8 -33 7 -13 11 -30 8 -37 -2 -6 2 -12 8 -12 7 0 10 -7 7 -15 -4
-8 -2 -17 3 -20 5 -3 7 -12 3 -20 -3 -8 0 -15 7 -15 7 0 9 -8 5 -20 -4 -12 -2
-20 5 -20 7 0 10 -8 7 -20 -3 -10 -1 -20 4 -22 4 -2 10 -19 11 -38 3 -32 37
-80 57 -80 19 0 48 49 48 81 0 38 8 179 23 379 5 74 9 146 9 160 -1 14 1 59 5
100 3 41 11 149 16 240 19 302 41 422 83 468 19 20 29 23 72 20 32 -3 62 -13
82 -27z"/>
</g>
</svg>
