<?xml version="1.0" standalone="no"?>
<!DOCTYPE svg PUBLIC "-//W3C//DTD SVG 20010904//EN"
 "http://www.w3.org/TR/2001/REC-SVG-20010904/DTD/svg10.dtd">
<svg version="1.0" xmlns="http://www.w3.org/2000/svg"
 width="316.000000pt" height="308.000000pt" viewBox="0 0 316.000000 308.000000"
 preserveAspectRatio="xMidYMid meet">
<metadata>
Created by potrace 1.16, written by Peter Selinger 2001-2019
</metadata>
<g transform="translate(0.000000,308.000000) scale(0.100000,-0.100000)"
fill="#000000" stroke="none">
<path d="M1579 2583 c-75 -39 -114 -93 -130 -182 -7 -39 -15 -71 -19 -71 -3 0
-21 15 -39 34 -95 98 -282 110 -369 24 -48 -46 -63 -80 -69 -159 -6 -71 -11
-80 -34 -53 -7 8 -36 27 -63 42 -41 21 -65 26 -126 26 -163 1 -245 -93 -242
-279 1 -127 48 -336 112 -503 l29 -74 -20 -39 c-23 -43 -22 -68 13 -199 120
-459 289 -673 592 -750 156 -40 340 -21 561 56 72 25 177 58 235 74 179 48
344 127 428 204 201 184 215 473 53 1061 -24 89 -41 174 -45 232 -16 230 -111
429 -236 497 -70 38 -164 41 -235 6 -31 -15 -52 -20 -60 -14 -130 100 -231
120 -336 67z m151 -33 c0 -5 10 -9 23 -8 68 4 169 -102 217 -230 28 -73 102
-362 101 -390 0 -13 4 -32 9 -42 7 -13 7 -35 -1 -67 -6 -26 -12 -58 -13 -70
-1 -11 -10 -33 -19 -47 -21 -32 -43 -36 -26 -5 16 31 -6 180 -30 199 -4 3 -21
28 -39 55 -42 67 -84 97 -144 103 -43 4 -104 -10 -118 -28 -11 -13 -100 -73
-103 -69 -2 2 -18 67 -36 144 -19 77 -36 147 -38 155 -8 30 -8 162 0 167 5 3
6 11 3 19 -3 8 -1 14 4 14 6 0 10 6 10 13 0 27 77 83 108 78 6 -1 12 3 12 9 0
5 18 10 40 10 22 0 40 -4 40 -10z m488 -98 c80 -63 144 -217 161 -383 8 -88 7
-115 -10 -212 -16 -93 -71 -175 -134 -201 -42 -18 -117 -28 -133 -18 -10 7
-11 14 -1 35 7 15 16 27 20 27 5 0 6 7 3 15 -4 8 -1 15 6 15 7 0 9 8 5 20 -4
11 -2 20 4 20 14 0 15 117 1 125 -5 3 -7 19 -3 35 3 19 1 30 -5 30 -6 0 -9 7
-5 16 3 9 2 19 -3 23 -6 3 -18 42 -28 86 -22 98 -61 224 -81 261 -8 15 -12 31
-9 36 3 4 0 8 -6 8 -6 0 -8 5 -5 10 3 6 0 10 -7 10 -9 0 -9 3 2 10 13 8 13 10
-1 10 -20 0 -33 27 -18 36 27 16 70 23 135 21 63 -2 74 -6 112 -35z m-1008
-63 c0 -6 7 -8 16 -5 27 10 104 -36 155 -93 27 -30 49 -62 49 -70 0 -9 7 -25
15 -35 8 -10 12 -23 9 -27 -3 -5 0 -9 6 -9 7 0 10 -6 7 -14 -3 -8 -2 -16 3
-18 5 -2 11 -14 12 -28 2 -14 6 -27 9 -30 8 -7 39 -123 39 -146 0 -12 -11 -26
-27 -35 -16 -8 -34 -20 -42 -27 -19 -19 -121 -69 -188 -93 -32 -11 -65 -23
-73 -26 -43 -16 -49 -11 -76 71 -15 45 -30 85 -35 90 -5 6 -9 18 -9 27 0 10
-5 19 -11 21 -6 2 -11 16 -11 31 0 15 -4 27 -8 27 -4 0 -7 12 -7 26 0 15 -5
29 -12 33 -6 4 -9 17 -6 29 2 12 0 22 -6 22 -5 0 -9 38 -9 85 0 53 4 85 11 85
5 0 7 4 4 10 -10 17 26 59 61 72 19 6 34 16 34 21 0 4 9 5 20 2 11 -4 20 -2
20 4 0 6 11 11 25 11 14 0 25 -5 25 -11z m-418 -209 c55 -16 127 -70 151 -115
12 -22 25 -42 30 -43 4 -2 5 -8 1 -13 -3 -5 0 -9 6 -9 6 0 8 -4 5 -10 -3 -5
-2 -10 4 -10 8 0 25 -48 26 -75 0 -5 3 -12 7 -15 6 -5 68 -165 68 -176 0 -2
-33 -4 -74 -4 -54 0 -77 -4 -86 -15 -7 -9 -15 -14 -17 -11 -6 5 -129 -129
-181 -197 -24 -31 -47 -57 -51 -57 -10 0 -71 171 -71 199 0 11 -4 22 -8 25 -4
2 -9 19 -10 38 -2 18 -7 37 -12 42 -4 4 -6 15 -3 22 3 8 0 14 -7 14 -8 0 -10
9 -6 25 4 15 2 25 -5 25 -7 0 -8 11 -4 29 3 17 2 32 -4 36 -12 7 -15 138 -4
149 4 4 8 21 9 37 2 37 36 76 89 100 45 21 93 24 147 9z m1074 -215 c41 -32
87 -106 78 -129 -4 -9 -1 -16 6 -16 7 0 10 -8 7 -20 -3 -11 -1 -20 4 -20 5 0
9 -22 9 -50 0 -29 -5 -50 -11 -50 -6 0 -8 -9 -4 -20 4 -12 2 -20 -5 -20 -6 0
-8 -5 -5 -11 7 -11 -28 -69 -66 -109 -26 -27 -94 -80 -103 -80 -3 0 -22 -11
-42 -25 -20 -14 -40 -22 -45 -19 -5 3 -9 0 -9 -6 0 -6 -4 -8 -10 -5 -5 3 -10
2 -10 -4 0 -20 -104 -44 -181 -42 -95 2 -132 -10 -127 -42 3 -21 7 -22 69 -19
46 3 76 -1 96 -12 53 -27 132 -133 118 -156 -3 -6 -1 -10 5 -10 6 0 8 -5 4
-11 -3 -6 -1 -15 6 -19 21 -13 25 -134 6 -185 -10 -25 -22 -45 -27 -45 -5 0
-9 -9 -9 -20 0 -15 7 -20 24 -20 32 0 50 19 72 75 21 56 15 174 -12 230 -9 21
-17 43 -17 51 0 8 -4 14 -9 14 -5 0 -6 5 -3 10 3 6 2 10 -2 10 -9 0 -73 85
-73 95 0 3 5 5 11 5 6 0 59 26 117 57 85 46 124 74 187 138 111 112 119 117
163 98 28 -12 46 -12 102 -3 37 6 78 19 90 28 71 54 106 92 131 147 l27 60 12
-45 c25 -94 69 -299 84 -395 16 -102 24 -301 12 -312 -3 -4 -6 -17 -6 -30 0
-44 -41 -147 -82 -205 -28 -40 -62 -71 -106 -99 -79 -50 -163 -90 -174 -83 -4
3 -8 1 -8 -5 0 -6 -7 -8 -15 -5 -8 4 -15 1 -15 -6 0 -6 -5 -8 -10 -5 -6 3 -16
0 -24 -8 -8 -8 -43 -20 -78 -26 -76 -16 -221 -62 -229 -73 -3 -5 -23 -11 -44
-13 -22 -3 -42 -10 -45 -16 -4 -5 -14 -7 -23 -3 -10 4 -17 1 -17 -6 0 -7 -8
-10 -20 -7 -11 3 -20 2 -20 -3 0 -12 -141 -30 -232 -30 -91 0 -208 17 -208 31
0 4 -7 6 -15 3 -8 -4 -15 -1 -15 6 0 6 -4 9 -10 5 -20 -12 -139 66 -206 136
-76 80 -149 202 -170 284 -3 14 -10 25 -16 25 -5 0 -7 4 -3 9 3 5 0 13 -6 16
-5 4 -8 13 -5 21 3 8 1 14 -5 14 -6 0 -9 7 -5 15 3 8 1 15 -5 15 -6 0 -9 7 -5
15 3 8 2 15 -3 15 -13 0 -63 235 -56 263 4 14 32 50 63 80 32 30 84 89 116
131 80 103 108 120 202 117 50 -2 74 1 74 9 0 7 8 9 20 5 12 -4 26 -2 33 3 7
5 39 17 72 27 33 9 65 20 70 24 6 5 25 13 44 19 55 19 249 144 310 201 71 64
151 78 207 36z"/>
</g>
</svg>
