<svg version="1.0" xmlns="http://www.w3.org/2000/svg" width="505.333" height="505.333" viewBox="0 0 379 379"><path d="M83.2 1.7c.8 1.6 7.1 15 8.8 18.8 1 2.3 3.1 7.2 4.5 11 1.5 3.9 3.6 9.2 4.7 12 3.5 9 3.7 13 1.5 24.5-.9 5-1.7 15.1-1.9 24.5l-.3 16 4.1 6.5c2.2 3.6 4.8 8.8 5.7 11.7 1.3 4.4 3.4 7 12 15.8 5.7 5.8 11 10.5 11.7 10.5.6 0 2.5-.9 4.1-2.1 1.6-1.1 3.3-1.8 3.8-1.5.5.4 1.9 2.7 3.2 5.4 1.2 2.6 4 6.8 6.1 9.3 2.1 2.6 3.8 5 3.8 5.4 0 1.5 11.9 17.1 17.3 22.6 3.6 3.6 10.3 4.1 13.2.9 1.9-2.1 4.5-2.7 4.5-1.1 0 .5 1.3 2.3 2.9 4 2.4 2.6 3.7 3.1 7.4 3.1 3.6 0 4.8-.5 6.1-2.5 1.8-2.7 2.1-10.6.6-13.6-.9-1.6-.7-1.9.9-1.9 1.1 0 3.1-1.5 4.5-3.3 3.8-4.9 3.4-9.4-1.4-18.8-4-7.8-4-7.9-1.7-7.9 1.3 0 3.4-1.1 4.6-2.4 4.1-4.3 2.2-13-8.3-38.1-3.6-8.6-4.8-12.2-8.3-26-.9-3.3-2.2-6.7-2.9-7.6-.8-.8-1.4-2-1.4-2.5 0-1.4-5.2-11.5-7.8-15.1-1.2-1.7-2.2-3.3-2.2-3.6 0-1.4-8.4-13-11.8-16.4-2.1-2.1-5.4-7.2-7.4-11.3C157.2 14.3 152 2.9 152 1.9c0-.5-.9-.9-2-.9-1.9 0-1.9.1.4 5.2 13.1 29.1 13.3 29.6 19.7 36.3 7.7 8.1 21 32.2 24.4 44 3.2 11.2 7.2 23 12.8 37 3 7.7 5.4 14.1 5.2 14.3-.2.2-1.2-.2-2.3-.9-2.8-1.7-5.1-.5-5.9 3.1-.8 4-1.4 3.2-4.8-6.5-1.5-4.4-4-10.3-5.5-13-3-5.4-6.7-16.8-7.2-22.5l-.4-3.5-.8 3.9c-1.1 4.8.7 11.1 6.9 24.6 2.3 5.2 6 14 8 19.5 2.1 5.5 5.5 13.2 7.6 17.1 4.5 8.3 4.9 9.7 1.4 6-3.5-3.8-7.4-3.3-9.5 1.2l-1.6 3.3-3.8-8.3c-2.2-4.6-6.6-13.9-9.9-20.8-6.9-14.6-8.2-17.8-9.1-24.2-1.1-7.5-3-7.2-2.1.3.9 8.1 2.2 11.6 8.3 23.1 2.7 5.1 5.7 11.5 6.8 14.3 2 5.5 10.6 22.3 13.7 26.9l2 2.8-2.1-1.1c-4.7-2.5-10.2-.8-10.2 3.2 0 2.8-1.8 1.1-4.5-4.4-1.4-2.7-5.5-9.2-9.1-14.6-3.6-5.3-8.3-13.9-10.5-19.2-4.9-11.7-10.2-21.5-14-25.9-3.6-4.1-4.1-1.5-.6 3.2 3.8 5 7.6 12.4 12.6 24.2 2.6 6.1 6.6 13.5 8.8 16.5 2.2 3 5.2 7.5 6.7 10.2l2.8 4.7-2.7-1c-4.5-1.7-9.4 2.6-7.9 7.2 1.1 3.6-1.2 1.2-8.8-9.1-13-17.6-15.5-21.4-20.3-31.1-7.5-15.1-13.6-23.4-23.5-32.5-3.6-3.2-7.3-7.2-8.4-8.7-2.9-4.5-3.2-2.4-.3 2.4 1.4 2.4 5.2 6.6 8.5 9.5 6 5.3 19.2 23.4 19.2 26.4 0 2.9-1.2 2.8-4.2-.7-2.5-2.9-3.7-3.4-7.2-3.4-3.1 0-4.8-.6-6.2-2.1-1.7-1.9-1.8-2.1-.1-3 2.9-1.7 1.9-2.8-1.5-1.8-4.6 1.3-5.9-.6-1.7-2.5l3.4-1.4-4.2-.1c-4-.1-4.2-.2-5.7-4.8-.9-2.6-3.4-7.7-5.6-11.3-4.6-7.5-4.7-8.8-3.7-23.5 1-14.3 2.5-23.6 4.8-30.4 2.3-6.6 2.4-7.7.4-6.1-1.2 1-1.5.9-1.5-.7 0-2.5-7.6-22.3-14.7-38.4C87.9 3.9 86.2 1 84.7 1c-1 0-1.7.3-1.5.7zm127.9 139.4c.9 1.7.8 2.3-.2 3-2.7 1.7-4.9 1-4.9-1.4 0-4.2 3.2-5.2 5.1-1.6zM132 143c2.7 1.4 4.1 4.3 3 6-.7 1.2-1.6.8-4.5-2-1.9-1.8-3.5-3.8-3.5-4.2 0-1.1 2.8-1 5 .2zm79.6 4.5c-2.2 1.7-4.6 2-4.6.6 0-.8 2.1-1.6 5.5-1.9.6-.1.1.5-.9 1.3zm-3.1 20.7 2.7 3.2-2.3 1.9c-1.2 1-3.2 1.7-4.3 1.5-3.8-.5-3.3-9.7.6-9.8.3 0 1.8 1.4 3.3 3.2zm2 7.9c-1.2 1.8-5.7 3.1-6.9 1.9-.7-.7-.2-1 1.5-1 1.3 0 3.1-.5 3.9-1 1.9-1.3 2.3-1.2 1.5.1zm-27.2 8.3c1.5 2.2 1.5 2.5-.1 3.8-3 2.6-4.3 3-5.7 1.8-1.5-1.3-2-6.1-.8-7.3 1.5-1.5 5.2-.6 6.6 1.7zm18.7 1.8c2.5 2.7 2.5 3.1.1 5.2-2.7 2.5-6.4 1.7-7.5-1.6-1.8-5.2 3.4-7.8 7.4-3.6zm-19 5.8c-2.4 1.5-3.6 1.1-1.4-.4 1-.8 2.1-1.2 2.4-1 .2.3-.2.9-1 1.4zm21 2.5c-.7.8-2.2 1.5-3.4 1.5-1.7-.1-1.6-.3.9-1.5 3.9-1.8 4-1.8 2.5 0z"/><path d="M188.4 128c-2.4.9-4.1 3-2.6 3 2 0 7.2-2.7 6.5-3.3-.8-.8-1.2-.8-3.9.3zM203.1 127.9c-.7.5-.9 1.1-.4 1.4.6.4 1.9 0 2.9-.8 1.5-1.1 1.6-1.4.4-1.5-.8 0-2.1.4-2.9.9zM190.2 133.3c-3.3 1.9-1.5 2.9 1.9 1.1 1.6-.8 2.9-1.7 2.9-1.9 0-.9-2.5-.4-4.8.8zM174.5 146c-2.3 2.5-1.4 2.5 2.7 0 2.7-1.6 2.9-2 1.2-2-1.1 0-2.9.9-3.9 2zM155.4 149c-1.2.4-2.4 1.5-2.7 2.4-.8 2-.9 2 5.4-.8 4.8-2.2 5.1-2.5 2.4-2.5-1.6 0-3.9.4-5.1.9zM178.8 150.9c-5 1.7-6.2 3.1-2.8 3.1 2.6 0 8-2.7 8-4 0-.6-.1-1-.2-.9-.2.1-2.4.8-5 1.8zM159.3 154.5c-3.6 1.5-4.2 2.5-1.5 2.5 1.8-.1 5.8-2.7 5.1-3.4-.2-.2-1.9.2-3.6.9zM199.5 157.5c-2.5 1.1-2.7 1.4-.9 1.4 1.2.1 2.7-.6 3.4-1.4 1.5-1.8 1.4-1.8-2.5 0zM169.8 171.6c-2.6 1.3-3.8 3.4-2 3.4 1.2-.1 5.7-3.8 5.2-4.3-.3-.3-1.7.1-3.2.9zM189.8 174.1c-1.9 1-2.4 2.9-.9 2.9.5 0 1.9-.9 3.2-2 2.6-2.1.9-2.8-2.3-.9zM239.8 186.6c-2.5 1.3-2.8 2-2.8 6.3 0 5.3 1.5 7.6 12.4 19.6 2.5 2.7 4.6 5.6 4.6 6.2 0 .7.4 1.3.9 1.3s1.1 1 1.5 2.3c.3 1.3 3.2 5.5 6.5 9.5 3.3 3.9 5.4 6.9 4.6 6.6-.8-.4-1.5-.9-1.5-1.3 0-.3-1.7-1.4-3.9-2.4-2.1-1-5.1-3-6.7-4.4-1.6-1.4-4.2-3.2-5.9-4-1.6-.9-7.9-4.7-13.9-8.6-9.4-6.2-11.4-7.1-15.6-7.1-10.7-.2-12.4 8.7-3.2 17.1 1.9 1.7 4.7 3.8 6.2 4.5 2.9 1.4 9 6 12.7 9.6 1.2 1.3 2.3 2 2.3 1.7 0-.3 1.9 1.3 4.2 3.5 2.3 2.1 5.5 4.4 7 5.1 1.5.6 2.8 1.5 2.8 2s.8.9 1.8.9c1.7.1 6.2 3.2 6.2 4.4 0 .3-2.3.6-5.1.6-4.5 0-5.5.4-8.5 3.4-4.8 4.8-4.2 10.4 1.7 15.5 1.5 1.3 1.4 1.6-.3 3.3-2.1 2.1-2.3 6.3-.6 9.9 1.4 2.9 10.9 9.3 16.9 11.4 2.4.9 5.3 2.3 6.4 3.3 1.1.9 3.6 2.6 5.5 3.6s8.8 5 15.4 8.9c12.6 7.4 17.3 9.5 24.7 10.8 4.1.6 5.9 2 15 10.6 12.4 11.8 23.9 23.4 23.9 24.2 0 .4 1 1.7 2.3 3.1 1.2 1.4 3.7 4.4 5.5 6.7 1.9 2.5 4.2 4.3 5.3 4.3 2.9 0-15.8-22.6-26.8-32.4-4.8-4.3-11.4-10.3-14.5-13.3l-5.7-5.3 2.9-7.2c1.6-4 2.8-7.3 2.6-7.5-.7-.8-3.6 3.7-5.3 8.2-1.6 4.2-2.3 5.1-4.7 5.3-3.7.5-12.5-3.1-20.9-8.5-3.7-2.4-9.8-5.9-13.5-7.7-3.7-1.9-7.6-4.1-8.7-5-1.9-1.4-1.9-1.5 1.2-1.4 3.8.1 7.9-2.3 8.8-5.2 1-3.1 2.3-2.4 3 1.8 1.1 6.5 2.7 7.4 2.1 1.2-.5-5-.4-5.7 1.8-7.2l2.4-1.7 1.6 5.7c1.6 5.6 4.5 11.7 4.6 9.7 0-.6-.8-4.1-1.9-7.8-2-7.2-1.1-7.6 2.9-1.2 3 4.9 10.7 10.5 14.4 10.5 2.6 0 9.6-3.2 9.6-4.3 0-.3-2 .2-4.5 1-5.9 2-8.3 1.2-13.8-4.4-8.1-8.4-17.7-19.4-17.7-20.4 0-.5 1.9-.9 4.3-.9 2.3-.1 5.6-.7 7.2-1.5 2.1-1.1 2.3-1.3.7-.9-1.3.3-5.5.3-9.4-.1-7.8-.8-7.4-.2-5.2-8.5.6-2.4.6-2.5-1-.5-.8 1.1-1.9 3.6-2.2 5.6-.5 3.1-1.1 3.8-3.6 4.3-1.8.3-4.1 0-5.9-1-3-1.5-3-1.5-1.9.5.6 1.2 1.5 2.1 2 2.1 2.1 0 .9 2.1-2.2 4-4 2.4-11.8 2.9-9.9.6.7-.8 1.1-3.8 1-6.8-.1-5.6 2.5-13.2 5.4-15.6.9-.7 4.2-1.7 7.4-2.2 11.9-1.8 18.3-3.1 20.9-4 3.5-1.4 8.7-1.3 10.2.2.6.6 5.5 3.4 10.9 6.2 8.1 4.3 10.4 6 14 10.8 2.4 3.1 8.3 8.8 13.1 12.6 4.8 3.8 14.1 11.5 20.7 17.1 6.6 5.5 12.3 10.1 12.8 10.1 1.8 0 .4-3.1-2-4.7-1.6-1-3.9-2.9-5.3-4.3-1.4-1.5-4.7-4.4-7.5-6.5-2.7-2.1-5.7-4.6-6.5-5.5-.8-.9-5.8-4.9-11.2-8.9-5.9-4.4-10.1-8.4-10.8-10.2-.7-1.6-1.7-2.9-2.2-2.9-.5 0-.6-.5-.3-1s.1-1-.5-1c-1.8 0-10.8-8-14.1-12.5-1.6-2.2-9-10.1-16.4-17.6-7.4-7.5-13.5-13.9-13.5-14.2 0-.3-2.2-2.9-5-5.8-2.7-3-5-5.7-5-6.2 0-.9-14.6-15.4-21.9-21.7-7.4-6.4-10.2-7.2-15.3-4.4zm12.4 5.6c7.2 5.7 20.9 19.7 28.8 29.3 3.5 4.4 11.9 13.5 18.6 20.2 11.7 11.7 17.4 18.3 15.8 18.3-.4 0-3.1-1.4-6.1-3-2.9-1.7-6.6-3-8.3-3-2.4 0-3-.4-3-2.2 0-2.2 0-2.2-1.7.2-.9 1.4-1.8 2.7-1.9 2.8-.1.2-1.9.7-3.8 1.2l-3.6.8-.1-4.7-.1-4.6-1.1 4.3c-2 7.2-6.3 8.3-9.7 2.4-1.3-2.1-2.5-3.2-2.7-2.4-.3.7.3 2.4 1.2 3.8.9 1.4 1.5 2.7 1.3 2.9-.2.2-3.1.7-6.6 1.1-6.9.7-7.5.1-4.2-4.4 1.1-1.5 2.4-4.3 3-6.2.9-3.4.9-3.4-.8-1.4-.9 1.2-2.5 3.6-3.5 5.4-2.2 4-4.3 3.4-4-1.1l.3-3.4-1.9 2.2-1.8 2.1-4.4-2.5c-5.8-3.2-8.9-6.2-8.9-8.5 0-1 .9-3.7 2.1-5.9 1.4-2.8 1.6-4 .7-3.7-.7.2-2.2 2.2-3.3 4.4-1.1 2.1-2.1 4.1-2.2 4.3-.2.2-2.9-1.6-6-4.1-3.2-2.5-8.4-6.2-11.5-8.3-6.3-4.1-8.8-7.2-8.8-10.8 0-3.1 1.8-4.7 5.2-4.7 3.4 0 6.9 1.7 16.3 8 3.9 2.5 9.3 5.9 12 7.5 2.8 1.5 6.1 3.7 7.5 4.7 1.4 1.1 5.2 3.7 8.5 5.8l6 3.9 3-2.9c1.7-1.5 4.6-3.8 6.5-5l3.5-2.2-3 .7c-1.6.3-4.2 1.5-5.6 2.5l-2.7 1.9-5.6-7c-3.1-3.9-5.6-7.6-5.6-8.2 0-.6 1.7-2.8 3.7-4.9 4.4-4.5 2.8-5.1-2.1-.8-3.3 2.9-3.5 3-4.5 1.2-.6-1.1-2.6-3.8-4.6-6.1-1.9-2.4-3.5-4.6-3.5-5.1 0-.4 1.4-2.2 3.2-3.9 1.7-1.7 2.8-3.1 2.4-3.1-1.3 0-5.1 2.3-6.4 3.9-1.1 1.4-1.6 1.1-4.7-2.3-4.3-4.8-5.6-10.3-3-12.3 3.1-2.2 6.1-1.5 11.7 2.9zm11.4 72c-.7 1.3-1.6 3.5-2 4.9-.3 1.5-2.2 3.8-4.1 5.3-1.9 1.5-3.5 3.4-3.5 4.2 0 2.4-3.5 0-6-4.1-2.2-3.5-2.2-6.2-.1-9.4.9-1.4 6.9-2.7 13.9-3 3.1-.1 3.2 0 1.8 2.1zm-3.6 16.9c0 2.7-2.1 5.4-3.3 4.2-1.2-1.1-.8-6.8.5-8.1 1.5-1.5 2.8.2 2.8 3.9zm25.5.9c.4.6-.6 1-2.3 1-3.6 0-5.6 2.2-5 5.5.3 1.4.4 2.5.3 2.5-.1 0-1.7-.7-3.5-1.7l-3.3-1.6 3.6-3.4c3.7-3.3 8.8-4.5 10.2-2.3zm-31.1 2.9c1.8 3.4 6.6 5.4 11 4.5 1.7-.3 4.4 0 6 .6l2.9 1.1-2.1 1.5c-2.7 1.9-3 6.8-.4 8.3 1.3.8.6.9-2.8.5-9.8-1.3-20-8.6-20-14.2 0-2.5 1.7-4.9 3.7-5.2.1 0 .9 1.3 1.7 2.9zm31.7.1c2.2 1.3 2.4 2.9.5 5.5-1.3 1.8-1.5 1.8-4 .2-3-2-3.3-4.2-.8-5.6 2.1-1.3 2-1.3 4.3-.1zm3.9 7.5c-2.1 2.6-3.1 1.6-1.3-1.1.9-1.5 1.9-2.1 2.1-1.5.2.6-.2 1.8-.8 2.6zm-12 3.9c0 1.4-.5 2.8-1 3.1-1.7 1.1-5-.5-5-2.4 0-2.4.9-3.1 3.7-3.1 1.8 0 2.3.6 2.3 2.4zm4 .3c0 .5-.5 1.5-1 2.3-.8 1.2-1 1.1-1-.8 0-1.2.5-2.2 1-2.2.6 0 1 .3 1 .7z"/><path d="M226.6 224.2c-1.7 2.4-2 3.8-.8 3.8.4 0 1.5-1.4 2.4-3 2-3.5.7-4.1-1.6-.8zM123.2 216.7c-1.9.9-5.2 3.4-7.4 5.5s-4.2 3.8-4.5 3.8c-.3 0-1.4 1-2.5 2.2-1.1 1.3-3.5 4-5.4 6-1.9 2.1-6 7.2-9.1 11.5-3 4.3-5.9 7.9-6.4 8.1-.5.2-.9.8-.9 1.4 0 .6-1.3 2.7-3 4.8-1.6 2-2.7 4-2.3 4.4.3.3.1.6-.5.6s-1.3.8-1.6 1.8c-.7 2.1-13.3 15.5-15.6 16.6-.8.3-3.3 2-5.5 3.7-2.2 1.6-5.5 3.9-7.2 5.1-1.8 1.1-3.3 2.4-3.3 2.9s-.7.9-1.5.9-1.5.4-1.5 1c0 .5-.5 1-1.1 1-.5 0-4.2 2.4-8.2 5.3-7.2 5.3-16.8 11.7-19.7 13C7.9 320.1.5 325.1.2 327c-.3 2.1 0 2 6.5-1.6 10.9-6 21.4-12.5 26.8-16.4 2.8-2 11.3-8.1 19-13.5 19.8-14 22.1-16 27.8-24.5 17.3-25.8 30.2-41.4 40.9-49.4 6.6-4.9 14-3.5 43.8 8.4 10.4 4.1 13.5 5.8 12.6 6.8-.3.2.4 1.6 1.4 3 1.1 1.3 2 3.1 2 3.9 0 .8-2.8 4.4-6.2 7.9-5.2 5.4-6.6 6.4-8.7 5.9-1.4-.3-8-1-14.6-1.5-15.1-1.3-18.7-2-18.2-3.3.2-.7 2.3-1.7 4.6-2.4 3.6-1 5-1 8.4.3 2.3.8 5.1 1.8 6.2 2 1.9.5 1.8.4-.2-1.4-1.3-1.1-2.3-2.3-2.3-2.6 0-.3 3.5-2.4 7.8-4.5 4.6-2.4 6.9-4 5.6-4.1-2.6 0-8.4 2.3-13.4 5.5l-3.8 2.4-.7-5.2c-.7-5.1-3.2-11.4-4.1-10.4-.3.2 0 2.4.5 4.8 1.9 7.9 1.5 9.6-2.1 10.2-1.8.4-4.3.9-5.5 1.3-1.9.5-2.3.3-2.3-1.8 0-3.4-2.9-11.4-4.6-12.9-1.8-1.4-1.8-1.7.6 6.1 2.1 7 2.6 12 1 12-.5 0-3.2-.9-6-2-6.1-2.4-10-2.6-5.2-.3 3.6 1.9 4.1 3 1.5 3.6-1.4.3-1.2.5.7.9 6.6 1.5 17.6 3 29 3.9 21.6 1.8 23.5 2.8 23.4 12.1-.1 6.1-.1 6.2 1.3 3.3l1.4-3-.5 4.4c-.2 2.4-1.5 7.7-2.8 11.8l-2.3 7.5-4.7-.5c-2.6-.2-5.9-1.2-7.4-2.1l-2.6-1.8 4.8-2.3 4.9-2.2-7.2.5-7.2.5-2.1-3.4-2.2-3.4.4 3.3c.6 4.3-2.1 5-9.1 2.2-5.8-2.3-6-1.1-.3 2l3.7 1.9-7 .1c-7.5.1-6.7 1.2 1.8 2.5 3.7.6 4.4 1 4 2.4-1.4 3.8-6.1 8.7-14.7 15.1-9.3 6.9-13.9 8.9-21.1 9.1l-4 .1 4.2 1c2.3.6 5.7.8 7.7.4 4.3-.8 13.9-7.2 21.6-14.3 3.2-2.9 6-5.3 6.4-5.3 2 0-.5 2.9-10 11.3-11.2 10.1-19.4 15.2-26.2 16.3-3.7.6-4.2.4-4.3-1.2 0-1.1-.3-1.4-.6-.6-.3.7-3.1 2.6-6.3 4.2-9.5 4.8-18.5 12.3-37.4 31.1C40 375.7 37.1 379 39.1 379c1.8 0 7.2-4.8 20.9-18.5C70.2 350.3 78.8 342 79.2 342c.5 0 1.9-1 3.2-2.1 5.1-4.4 14.2-8.8 18.2-8.9 4.7 0 17.4-4.6 17.4-6.2 0-.4.5-.8 1.1-.8 1.1 0 11.5-8.6 15.5-12.8 1.2-1.2 2.6-2.2 3.3-2.2.6 0 1-.3.8-.8-.1-.4.8-1.7 2.1-3 2-2 2.5-2.1 4.5-.8 3.4 2.1 9.4 2.8 13.3 1.6 1.9-.6 3.4-1.6 3.4-2.1s.6-.9 1.3-.9c.6 0 2.5-1.1 4.1-2.5 1.6-1.3 3.8-2.7 5-3.1 3.9-1.2 5.6-3.5 5.6-7.8 0-3.4.5-4.4 2.9-6.1 3.6-2.4 5.1-5.4 5.1-10.3 0-2 .7-4.6 1.5-5.6 2-2.6 2-11 0-13-.8-.8-1.5-1.8-1.5-2.3 0-.4-.9-1.4-2-2.1-1.6-1-1.8-1.6-1-3.2.5-1 1-2.8 1-4 0-2.6-2.8-8.1-4.9-9.7-3.2-2.5-15.4-7.7-29.6-12.6-19-6.5-20.7-6.8-26.3-4zm60.8 38.8c2.5 4.1 2.7 6.3.3 4.4-1.5-1.2-1.6-1.2-.9.6 2 4.9 1.9 5.7-1 8.1-3.9 3.2-5.1 3-5.8-1-.4-1.9-1.8-4.5-3.1-5.8l-2.4-2.3 4.1-4.2c2.2-2.3 4.7-3.9 5.4-3.6.8.3 2.3 2 3.4 3.8zm-1 18c0 2.6-2.3 6.4-4.8 8.1l-2.5 1.6.7-3.8c.9-4.8 6.6-10 6.6-5.9zm-8 15.7c0 2.7-1.6 5.5-2.6 4.6-.6-.7 1.4-6.8 2.2-6.8.2 0 .4 1 .4 2.2zm-21.7 2.2 3.7 3.4-2.9.7c-2.9.6-9.3-1.4-10.5-3.3-.7-1.1 3-4.2 5-4.2.6 0 2.8 1.5 4.7 3.4zm-6.1 5.6c4.2 1.8 4.6 1.8 10.6.2 4.6-1.2 6.5-1.3 7.3-.5.8.8-.3 1.9-4.2 4.2-3 1.7-6.1 3.1-6.9 3.1-.8 0-4.3-1.3-7.7-3-4.7-2.1-6.1-3.3-5.7-4.5.8-1.9 1.2-1.9 6.6.5z"/></svg>