<svg version="1.0" xmlns="http://www.w3.org/2000/svg" width="400" height="400" viewBox="0 0 300 300"><path d="M187 7.7c-7.7 4-14.4 19-33 73.8-3.8 11-8.3 23.8-10 28.5-1.8 4.7-4.5 12.7-5.9 17.8l-2.7 9.3-1.2-27.8c-1.3-30.8-4.2-59-7.2-70.9C121.6 17.6 112.4 7 99.5 7c-7.4 0-16.4 9.2-18.4 18.5-.6 2.7-1.5 17.6-2.1 33-1 26.3-3.7 63.7-5.9 80.5-1.7 13-3.1 17.7-7.2 24.1-3.1 4.7-4.9 9.4-7.6 19.8-3.5 13.1-3.7 14.3-3.7 31.1-.1 15.6.2 18.3 2.2 24.8 2.8 8.9 7.3 16 14.4 22.8 13.2 12.7 28.9 19.6 53.3 23.5 6.6 1 16.5 2.9 22.1 4.3 27.5 6.5 43.5 3.6 58-10.8 7.5-7.6 12.9-16.1 17.5-28.1 3-7.7 10.9-34.2 12.9-43.5.7-3 2.4-7.1 3.9-9 10.8-13.9 13.8-26.7 8.8-36.7-2.6-5.1-7.1-9.7-10.6-10.8-1.6-.5-1.8-1.6-1.8-8.3.1-8.8-1.7-13.9-6.6-19.1-7.3-7.6-17.5-9.2-27.1-4.2-3.1 1.7-5.6 2.7-5.6 2.3 0-.4 3.6-11.7 8.1-25.2 13.5-40.9 16.6-56.5 14-69.2-1.4-6.4-6-13.1-12.2-17.4-5.3-3.6-13.7-4.4-18.9-1.7zm17.4 6c6 4.2 8.7 9.8 9.3 19.1.7 10.3-1.9 22.1-10.3 48.2-3.6 11.3-8.6 27-11.1 34.9l-4.5 14.4-9.4 10.6c-5.2 5.8-10.4 12.7-11.6 15.3l-2.2 4.8h-12.8c-18.2 0-28.4-2.3-39.8-9-4.6-2.8-8.4-2.2-22.5 3.5-6.1 2.5-11.8 4.5-12.8 4.5-2.1 0-2.1-.6-.3-9.5 3.4-16.5 7.4-63.8 8.5-100 .7-25.5 1.2-28.2 5.4-33.5 4.2-5.4 12-6.6 17.8-2.7 6.9 4.6 13.2 19.1 16.3 37.3 2.1 12.5 4.6 52.7 4.6 75.1 0 17.9.1 19.1 2.1 20.9 4 3.6 7-.8 11.4-16.7 1.5-5.2 4.1-13.2 6-17.9 1.8-4.7 6.1-16.8 9.5-27 16.9-50.3 22.8-64.6 29.7-71.9 4-4.1 4.5-4.3 8.4-3.8 2.3.3 6.1 1.8 8.3 3.4zM220 122.8c1.9.9 5 3.9 6.8 6.6 4.4 6.7 4.5 14.8.2 23.9-4 8.6-25.3 34.7-28.2 34.7-.4 0-.8-3.3-.7-7.3 0-16.5-4.6-21.7-19.6-21.7-4.1 0-7.5-.3-7.5-.6 0-1.6 3.1-5.8 10.4-13.9 19.4-21.7 28.5-26.8 38.6-21.7zm20.9 37.2c7.8 11.3 4 24.1-11.9 40.2-6.9 7-10.2 9.4-16.3 12.3-12.5 5.9-22.2 5.7-29-.5l-3.2-3 4-3.5c2.2-2 5.8-4.8 8-6.2 8.3-5.5 29.7-28.4 36-38.8 4-6.4 4.4-6.7 7.7-4.7 1.7.9 3.8 2.8 4.7 4.2zm-126.4-1.5c3.8 1.9 9.8 4.1 13.4 4.9 10 2.2 27.3 3 37.1 1.6 16.6-2.3 19.1-2.4 22.5-.6 4 2.2 5.5 4.7 6.2 10.5 1.4 12.2-4.6 23.4-15.4 28.7-5.6 2.8-6.3 2.9-21.3 2.9h-15.5l-6.1-3.8c-6.7-4-12.8-5.1-12.2-2 .2.9 1.7 2 3.5 2.5 7.5 2 12.9 12.3 11.7 22.3-1.2 9.5-8 20.9-13.5 22.7-1.6.5-.4 3.8 1.3 3.8 2.1 0 8.7-5.9 11.4-10.2 3.8-6 5.7-14.9 4.9-23.2l-.6-7.1h13.3c7.3 0 14.7-.3 16.5-.7 2.8-.6 3.7-.3 6.7 2.7 6.9 6.7 15.1 8.8 25.8 6.6 5.3-1.1 17.6-6.8 20.9-9.7 1.6-1.4 3.9-1.9 3.9-.8 0 1.3-7.3 26.5-9.7 33.4-3.6 10.6-11.1 24.5-16 30.1-6 6.6-12.5 10.5-22.2 13-8.2 2.3-8.4 2.3-20.6.6-6.8-1-15.2-2.6-18.7-3.7-3.5-1-10.1-2.4-14.8-3-15.5-2.1-25.5-5.1-36.9-11.1-18.9-10.1-28.3-23.4-31-43.9-1.4-11.1-.2-22.5 4.3-40.5 4.1-16.1 5.3-17.8 14.2-20.1 3.2-.9 8.6-2.7 11.9-4.2 5.3-2.2 14.1-4.9 17.1-5.1.5-.1 4.1 1.5 7.9 3.4z"/></svg>