<svg version="1.0" xmlns="http://www.w3.org/2000/svg" width="428" height="418.667" viewBox="0 0 321 314"><path d="M151.2 11.5c-4.7 3.4-8.4 14.2-10.1 30-.6 4.9-2 23.6-3.1 41.5s-2.4 36.3-3 41c-.5 4.7-1 11.6-1.1 15.5v7l-3.5-12.5c-11.6-41.8-25.1-77.3-33.3-87.5-4-4.9-14.2-12.6-15.8-12-.7.2-1.3 0-1.3-.5 0-1.4-5.4-1.2-6.8.2-.7.7-1.2.9-1.2.5 0-.8-3.6 2.1-5.9 4.7-.9 1-2.1 2.4-2.8 3.1-.7.7-.9 1.5-.6 1.9.4.3.1.6-.5.6s-.9.6-.6 1.4c.3.8.2 1.6-.3 1.9-1.7 1.1.6 17.6 5.2 37.2C77 130.6 85.8 179 83.5 179c-.4 0-3.7-2.6-7.3-5.9-22-19.3-37.7-26.9-50.3-24.2-9.7 2.1-14.9 7.4-14.9 15 0 10.1 7.3 18.7 40.8 47.6 14.1 12.2 19.3 19.2 23.6 32.3 4.3 12.9 7.3 18 14.8 24.8 6.2 5.6 13.3 9.3 24.1 12.6 7.4 2.2 21.3 2.9 60.7 3 22.9.1 33-3 43.5-13.6 9.3-9.4 14-20.9 19-46.6 1-4.7 2.1-9.2 2.6-10.1.4-.9 7-6.3 14.6-12 15.5-11.7 39.2-34.2 46-43.6 9.6-13.5 11-26.8 3.5-34.6-6.8-7.1-19.2-1.3-47.2 22.2-14.6 12.2-27.6 21.8-28.4 21-.5-.4 12.5-32.9 23.8-59.7 15.3-36.6 17.7-57.1 7.7-66.9-4.8-4.8-7.1-6.6-7.1-5.6 0 .4-.5.2-1.2-.5-2.9-2.9-10.9 0-18.2 6.7-9.4 8.7-21 33.1-34.9 73.6-8.2 23.9-10.8 30.5-11.8 29.9-.5-.3-.9-20.9-.9-46.7 0-25.4-.5-50.2-1-55-2.5-21.2-10.5-31.7-24.9-32.5-4.9-.2-7.2.1-8.9 1.3zm17.5 6.4c3.8 2.8 8.1 10.4 8.8 15.7.3 2.1.8 4.6 1.1 5.4.6 1.5 1 25.8 1.6 84.2.3 29.9.5 33.9 2 35.4 2.5 2.5 4.5 1.1 7.5-5.3 1.6-3.2 3.2-6.1 3.8-6.5.5-.4.6-1 .3-1.4-.4-.4-.2-1.6.4-2.8.7-1.1 1.3-2.4 1.4-2.9.1-.4.3-1 .4-1.5.1-.4.2-1 .1-1.5 0-.4.3-.7.9-.7.5 0 .7-.7.4-1.5-.4-.8-.1-1.5.5-1.5s.8-.7.5-1.5c-.4-.8-.1-1.5.7-1.5.7 0 .9-.3.6-.7-.4-.3-.3-1.1.2-1.7.5-.6 1.8-4 2.9-7.6 5.9-19 17-48 18.5-48 .4 0 .5-.5.2-1-.3-.6-.1-1 .5-1s.8-.5.5-1c-.3-.6-.1-1 .6-1s.9-.3.6-.6c-1-1.1 5.8-13.3 10.8-19.4 4.6-5.6 9.4-9 12.8-9 3.8 0 8.4 3.1 10.7 7.3 4.7 8.3 2.3 25.7-6.9 50.1-2.3 6.1-4.6 11.3-5.2 11.7-.6.3-1 1-1 1.5.1 1.5-1.1 4.9-2.1 5.5-.5.3-1.1 1.9-1.4 3.5-.3 1.6-.9 3.1-1.3 3.4-.5.3-1.1 1.6-1.5 3-.4 1.4-1.1 3.4-1.6 4.5s-4.6 11.3-9 22.7c-4.5 11.4-8.6 20.8-9.2 21-.8.3-.5 1.1.8 2.4 1.9 2 1.9 1.9 9.4-2.4 7.8-4.6 18.9-12.4 25.1-17.7 2-1.6 4.4-3.7 5.5-4.5 1-.9 6-5 10.9-9.2 11.3-9.5 20.6-14.8 26.3-14.8 3 0 4.4.5 5.1 1.9.6 1 .7 2.1.4 2.5-.3.3-.2.6.3.6 1.1 0 1.1 7.1 0 8.9-.4.6-.4 1.5-.1 2.1.3.5.1 1-.6 1s-1 .3-.6.6c2 2-8.1 15.4-21.7 28.9-11.5 11.4-28.9 25.8-30 24.8-.3-.4-.6-.2-.6.4 0 .6-3.3 3.6-7.4 6.7l-7.3 5.6-2.7 13.8c-5.3 27.1-10.8 39.1-21.6 46.5-9.4 6.4-12.7 6.9-46.5 7.3-23.2.3-32.1 0-39.4-1.2-14.5-2.3-26.3-7.6-33.3-15.1-3.2-3.4-7.8-11.9-7.8-14.4 0-1.1-.4-1.9-1-1.9-.5 0-1-1.1-1-2.4 0-1.4-.5-2.8-1.1-3.2-.6-.3-.9-1.7-.6-3 .2-1.4-.1-2.5-1-2.8-.8-.3-1.1-1-.8-1.6.3-.5.1-1-.5-1s-.8-.4-.5-1c.3-.5.2-1-.3-1s-1.3-1-1.9-2.3C72.5 223.8 63 214.1 49 202c-16.7-14.5-28.1-26.2-30.7-31.5-2.6-5.4-1.8-11.1 2-13.9 2.2-1.6 4.5-2.1 10.5-2.3 7.3-.2 8.1 0 15.2 3.8 9.7 5.3 18.4 11.5 29 20.8 4.7 4.2 8.7 7.8 9 8.2.3.4 2.1 1.6 4 2.8 3 1.8 5.1 2.1 14.1 2.1 23.3 0 37.5 9.4 42.2 28 1.1 4.3 1.9 5.6 3.6 5.8 7.9 1.2-1.1-20.4-12-28.6-2.6-2.1-4.8-4.3-4.8-5-.1-.7-.6-1-1.1-.7-.6.4-2.2 0-3.5-.9-4.1-2.7-13.5-4.6-23-4.6-13.5 0-13.1.2-13.9-9-.4-4.3-1.8-14.2-3.1-22.1-1.4-7.9-2.7-16-2.9-17.9-.3-1.9-1-5.5-1.6-8-.6-2.5-1.3-6.5-1.6-9-.2-2.4-1-4.7-1.6-5.1-.6-.4-.7-1.2-.3-1.8.4-.7.2-1.8-.4-2.5-.6-.7-.9-2-.5-2.9.3-.8.1-1.8-.5-2.1-.6-.4-.8-1.3-.5-2 .3-.8.1-1.7-.5-2-.6-.4-.8-1.3-.4-2.1.3-.9 0-2.1-.6-2.9-.6-.7-.9-2.1-.5-3 .4-.9.1-1.6-.6-1.6-.8 0-1-.9-.6-2.5.4-1.5.2-2.5-.4-2.5-.7 0-.9-.8-.5-2s.2-2-.5-2-1-.8-.7-2c.3-1.1.1-2-.4-2s-.6-1.2-.3-2.6c.4-1.7.3-2.5-.3-2.1-1.2.8-4.3-12.6-4.3-18.5 0-10.1 5.3-17.5 11.7-16.5 13.4 2.2 24.5 21.1 36.7 62.2 1.5 4.9 3 9.7 3.3 10.5.3.8.8 2.4 1 3.4.2 1.1.8 2.5 1.3 3.1.5.7.7 1.5.3 1.8-.3.4 0 1.3.6 2.1.7.8 1 1.9.7 2.4-.3.5.1 1.9.8 3.3.7 1.3 1.1 3 .8 3.7-.2.6.2 1.2.8 1.2.7 0 1 .7.7 1.5-.4.8-.2 1.7.3 2 .5.3.7 1.2.3 2-.3.8 0 1.5.7 1.5s.9.8.5 2-.2 2 .5 2 1 .8.7 2c-.3 1-.1 2 .4 2.2.4.2 1 1.9 1.1 3.8.3 3.2 3.7 8 5.7 8 1.9 0 4.8-4.9 4.8-8.1 0-3.8.8-17.9 2.3-37.9.5-7.4.9-14.6.9-16-.1-1.4.1-5.9.5-10 .3-4.1 1.1-14.9 1.6-24 1.9-30.2 4.1-42.2 8.3-46.8 1.9-2 2.9-2.3 7.2-2 3.2.3 6.2 1.3 8.2 2.7z"/></svg>