<?xml version="1.0" standalone="no"?>
<!DOCTYPE svg PUBLIC "-//W3C//DTD SVG 20010904//EN"
 "http://www.w3.org/TR/2001/REC-SVG-20010904/DTD/svg10.dtd">
<svg version="1.0" xmlns="http://www.w3.org/2000/svg"
 width="379.000000pt" height="379.000000pt" viewBox="0 0 379.000000 379.000000"
 preserveAspectRatio="xMidYMid meet">
<metadata>
Created by potrace 1.16, written by Peter Selinger 2001-2019
</metadata>
<g transform="translate(0.000000,379.000000) scale(0.100000,-0.100000)"
fill="#000000" stroke="none">
<path d="M832 3773 c8 -16 71 -150 88 -188 10 -23 31 -72 45 -110 15 -39 36
-92 47 -120 35 -90 37 -130 15 -245 -9 -50 -17 -151 -19 -245 l-3 -160 41 -65
c22 -36 48 -88 57 -117 13 -44 34 -70 120 -158 57 -58 110 -105 117 -105 6 0
25 9 41 21 16 11 33 18 38 15 5 -4 19 -27 32 -54 12 -26 40 -68 61 -93 21 -26
38 -50 38 -54 0 -15 119 -171 173 -226 36 -36 103 -41 132 -9 19 21 45 27 45
11 0 -5 13 -23 29 -40 24 -26 37 -31 74 -31 36 0 48 5 61 25 18 27 21 106 6
136 -9 16 -7 19 9 19 11 0 31 15 45 33 38 49 34 94 -14 188 -40 78 -40 79 -17
79 13 0 34 11 46 24 41 43 22 130 -83 381 -36 86 -48 122 -83 260 -9 33 -22
67 -29 76 -8 8 -14 20 -14 25 0 14 -52 115 -78 151 -12 17 -22 33 -22 36 0 14
-84 130 -118 164 -21 21 -54 72 -74 113 -66 137 -118 251 -118 261 0 5 -9 9
-20 9 -19 0 -19 -1 4 -52 131 -291 133 -296 197 -363 77 -81 210 -322 244
-440 32 -112 72 -230 128 -370 30 -77 54 -141 52 -143 -2 -2 -12 2 -23 9 -28
17 -51 5 -59 -31 -8 -40 -14 -32 -48 65 -15 44 -40 103 -55 130 -30 54 -67
168 -72 225 l-4 35 -8 -39 c-11 -48 7 -111 69 -246 23 -52 60 -140 80 -195 21
-55 55 -132 76 -171 45 -83 49 -97 14 -60 -35 38 -74 33 -95 -12 l-16 -33 -38
83 c-22 46 -66 139 -99 208 -69 146 -82 178 -91 242 -11 75 -30 72 -21 -3 9
-81 22 -116 83 -231 27 -51 57 -115 68 -143 20 -55 106 -223 137 -269 l20 -28
-21 11 c-47 25 -102 8 -102 -32 0 -28 -18 -11 -45 44 -14 27 -55 92 -91 146
-36 53 -83 139 -105 192 -49 117 -102 215 -140 259 -36 41 -41 15 -6 -32 38
-50 76 -124 126 -242 26 -61 66 -135 88 -165 22 -30 52 -75 67 -102 l28 -47
-27 10 c-45 17 -94 -26 -79 -72 11 -36 -12 -12 -88 91 -130 176 -155 214 -203
311 -75 151 -136 234 -235 325 -36 32 -73 72 -84 87 -29 45 -32 24 -3 -24 14
-24 52 -66 85 -95 60 -53 192 -234 192 -264 0 -29 -12 -28 -42 7 -25 29 -37
34 -72 34 -31 0 -48 6 -62 21 -17 19 -18 21 -1 30 29 17 19 28 -15 18 -46 -13
-59 6 -17 25 l34 14 -42 1 c-40 1 -42 2 -57 48 -9 26 -34 77 -56 113 -46 75
-47 88 -37 235 10 143 25 236 48 304 23 66 24 77 4 61 -12 -10 -15 -9 -15 7 0
25 -76 223 -147 384 -44 100 -61 129 -76 129 -10 0 -17 -3 -15 -7z m1279
-1394 c9 -17 8 -23 -2 -30 -27 -17 -49 -10 -49 14 0 42 32 52 51 16z m-791
-19 c27 -14 41 -43 30 -60 -7 -12 -16 -8 -45 20 -19 18 -35 38 -35 42 0 11 28
10 50 -2z m796 -45 c-22 -17 -46 -20 -46 -6 0 8 21 16 55 19 6 1 1 -5 -9 -13z
m-31 -207 l27 -32 -23 -19 c-12 -10 -32 -17 -43 -15 -38 5 -33 97 6 98 3 0 18
-14 33 -32z m20 -79 c-12 -18 -57 -31 -69 -19 -7 7 -2 10 15 10 13 0 31 5 39
10 19 13 23 12 15 -1z m-272 -83 c15 -22 15 -25 -1 -38 -30 -26 -43 -30 -57
-18 -15 13 -20 61 -8 73 15 15 52 6 66 -17z m187 -18 c25 -27 25 -31 1 -52
-27 -25 -64 -17 -75 16 -18 52 34 78 74 36z m-190 -58 c-24 -15 -36 -11 -14 4
10 8 21 12 24 10 2 -3 -2 -9 -10 -14z m210 -25 c-7 -8 -22 -15 -34 -15 -17 1
-16 3 9 15 39 18 40 18 25 0z"/>
<path d="M1884 2510 c-24 -9 -41 -30 -26 -30 20 0 72 27 65 33 -8 8 -12 8 -39
-3z"/>
<path d="M2031 2511 c-7 -5 -9 -11 -4 -14 6 -4 19 0 29 8 15 11 16 14 4 15 -8
0 -21 -4 -29 -9z"/>
<path d="M1902 2457 c-33 -19 -15 -29 19 -11 16 8 29 17 29 19 0 9 -25 4 -48
-8z"/>
<path d="M1745 2330 c-23 -25 -14 -25 27 0 27 16 29 20 12 20 -11 0 -29 -9
-39 -20z"/>
<path d="M1554 2300 c-12 -4 -24 -15 -27 -24 -8 -20 -9 -20 54 8 48 22 51 25
24 25 -16 0 -39 -4 -51 -9z"/>
<path d="M1788 2281 c-50 -17 -62 -31 -28 -31 26 0 80 27 80 40 0 6 -1 10 -2
9 -2 -1 -24 -8 -50 -18z"/>
<path d="M1593 2245 c-36 -15 -42 -25 -15 -25 18 1 58 27 51 34 -2 2 -19 -2
-36 -9z"/>
<path d="M1995 2215 c-25 -11 -27 -14 -9 -14 12 -1 27 6 34 14 15 18 14 18
-25 0z"/>
<path d="M1698 2074 c-26 -13 -38 -34 -20 -34 12 1 57 38 52 43 -3 3 -17 -1
-32 -9z"/>
<path d="M1898 2049 c-19 -10 -24 -29 -9 -29 5 0 19 9 32 20 26 21 9 28 -23 9z"/>
<path d="M2398 1924 c-25 -13 -28 -20 -28 -63 0 -53 15 -76 124 -196 25 -27
46 -56 46 -62 0 -7 4 -13 9 -13 5 0 11 -10 15 -23 3 -13 32 -55 65 -95 33 -39
54 -69 46 -66 -8 4 -15 9 -15 13 0 3 -17 14 -39 24 -21 10 -51 30 -67 44 -16
14 -42 32 -59 40 -16 9 -79 47 -139 86 -94 62 -114 71 -156 71 -107 2 -124
-87 -32 -171 19 -17 47 -38 62 -45 29 -14 90 -60 127 -96 12 -13 23 -20 23
-17 0 3 19 -13 42 -35 23 -21 55 -44 70 -51 15 -6 28 -15 28 -20 0 -5 8 -9 18
-9 17 -1 62 -32 62 -44 0 -3 -23 -6 -51 -6 -45 0 -55 -4 -85 -34 -48 -48 -42
-104 17 -155 15 -13 14 -16 -3 -33 -21 -21 -23 -63 -6 -99 14 -29 109 -93 169
-114 24 -9 53 -23 64 -33 11 -9 36 -26 55 -36 19 -10 88 -50 154 -89 126 -74
173 -95 247 -108 41 -6 59 -20 150 -106 124 -118 239 -234 239 -242 0 -4 10
-17 23 -31 12 -14 37 -44 55 -67 19 -25 42 -43 53 -43 29 0 -158 226 -268 324
-48 43 -114 103 -145 133 l-57 53 29 72 c16 40 28 73 26 75 -7 8 -36 -37 -53
-82 -16 -42 -23 -51 -47 -53 -37 -5 -125 31 -209 85 -37 24 -98 59 -135 77
-37 19 -76 41 -87 50 -19 14 -19 15 12 14 38 -1 79 23 88 52 10 31 23 24 30
-18 11 -65 27 -74 21 -12 -5 50 -4 57 18 72 l24 17 16 -57 c16 -56 45 -117 46
-97 0 6 -8 41 -19 78 -20 72 -11 76 29 12 30 -49 107 -105 144 -105 26 0 96
32 96 43 0 3 -20 -2 -45 -10 -59 -20 -83 -12 -138 44 -81 84 -177 194 -177
204 0 5 19 9 43 9 23 1 56 7 72 15 21 11 23 13 7 9 -13 -3 -55 -3 -94 1 -78 8
-74 2 -52 85 6 24 6 25 -10 5 -8 -11 -19 -36 -22 -56 -5 -31 -11 -38 -36 -43
-18 -3 -41 0 -59 10 -30 15 -30 15 -19 -5 6 -12 15 -21 20 -21 21 0 9 -21 -22
-40 -40 -24 -118 -29 -99 -6 7 8 11 38 10 68 -1 56 25 132 54 156 9 7 42 17
74 22 119 18 183 31 209 40 35 14 87 13 102 -2 6 -6 55 -34 109 -62 81 -43
104 -60 140 -108 24 -31 83 -88 131 -126 48 -38 141 -115 207 -171 66 -55 123
-101 128 -101 18 0 4 31 -20 47 -16 10 -39 29 -53 43 -14 15 -47 44 -75 65
-27 21 -57 46 -65 55 -8 9 -58 49 -112 89 -59 44 -101 84 -108 102 -7 16 -17
29 -22 29 -5 0 -6 5 -3 10 3 5 1 10 -5 10 -18 0 -108 80 -141 125 -16 22 -90
101 -164 176 -74 75 -135 139 -135 142 0 3 -22 29 -50 58 -27 30 -50 57 -50
62 0 9 -146 154 -219 217 -74 64 -102 72 -153 44z m124 -56 c72 -57 209 -197
288 -293 35 -44 119 -135 186 -202 117 -117 174 -183 158 -183 -4 0 -31 14
-61 30 -29 17 -66 30 -83 30 -24 0 -30 4 -30 22 0 22 0 22 -17 -2 -9 -14 -18
-27 -19 -28 -1 -2 -19 -7 -38 -12 l-36 -8 -1 47 -1 46 -11 -43 c-20 -72 -63
-83 -97 -24 -13 21 -25 32 -27 24 -3 -7 3 -24 12 -38 9 -14 15 -27 13 -29 -2
-2 -31 -7 -66 -11 -69 -7 -75 -1 -42 44 11 15 24 43 30 62 9 34 9 34 -8 14 -9
-12 -25 -36 -35 -54 -22 -40 -43 -34 -40 11 l3 34 -19 -22 -18 -21 -44 25
c-58 32 -89 62 -89 85 0 10 9 37 21 59 14 28 16 40 7 37 -7 -2 -22 -22 -33
-44 -11 -21 -21 -41 -22 -43 -2 -2 -29 16 -60 41 -32 25 -84 62 -115 83 -63
41 -88 72 -88 108 0 31 18 47 52 47 34 0 69 -17 163 -80 39 -25 93 -59 120
-75 28 -15 61 -37 75 -47 14 -11 52 -37 85 -58 l60 -39 30 29 c17 15 46 38 65
50 l35 22 -30 -7 c-16 -3 -42 -15 -56 -25 l-27 -19 -56 70 c-31 39 -56 76 -56
82 0 6 17 28 37 49 44 45 28 51 -21 8 -33 -29 -35 -30 -45 -12 -6 11 -26 38
-46 61 -19 24 -35 46 -35 51 0 4 14 22 32 39 17 17 28 31 24 31 -13 0 -51 -23
-64 -39 -11 -14 -16 -11 -47 23 -43 48 -56 103 -30 123 31 22 61 15 117 -29z
m114 -720 c-7 -13 -16 -35 -20 -49 -3 -15 -22 -38 -41 -53 -19 -15 -35 -34
-35 -42 0 -24 -35 0 -60 41 -22 35 -22 62 -1 94 9 14 69 27 139 30 31 1 32 0
18 -21z m-36 -169 c0 -27 -21 -54 -33 -42 -12 11 -8 68 5 81 15 15 28 -2 28
-39z m255 -9 c4 -6 -6 -10 -23 -10 -36 0 -56 -22 -50 -55 3 -14 4 -25 3 -25
-1 0 -17 7 -35 17 l-33 16 36 34 c37 33 88 45 102 23z m-311 -29 c18 -34 66
-54 110 -45 17 3 44 0 60 -6 l29 -11 -21 -15 c-27 -19 -30 -68 -4 -83 13 -8 6
-9 -28 -5 -98 13 -200 86 -200 142 0 25 17 49 37 52 1 0 9 -13 17 -29z m317
-1 c22 -13 24 -29 5 -55 -13 -18 -15 -18 -40 -2 -30 20 -33 42 -8 56 21 13 20
13 43 1z m39 -75 c-21 -26 -31 -16 -13 11 9 15 19 21 21 15 2 -6 -2 -18 -8
-26z m-120 -39 c0 -14 -5 -28 -10 -31 -17 -11 -50 5 -50 24 0 24 9 31 37 31
18 0 23 -6 23 -24z m40 -3 c0 -5 -5 -15 -10 -23 -8 -12 -10 -11 -10 8 0 12 5
22 10 22 6 0 10 -3 10 -7z"/>
<path d="M2266 1548 c-17 -24 -20 -38 -8 -38 4 0 15 14 24 30 20 35 7 41 -16
8z"/>
<path d="M1232 1623 c-19 -9 -52 -34 -74 -55 -22 -21 -42 -38 -45 -38 -3 0
-14 -10 -25 -22 -11 -13 -35 -40 -54 -60 -19 -21 -60 -72 -91 -115 -30 -43
-59 -79 -64 -81 -5 -2 -9 -8 -9 -14 0 -6 -13 -27 -30 -48 -16 -20 -27 -40 -23
-44 3 -3 1 -6 -5 -6 -6 0 -13 -8 -16 -18 -7 -21 -133 -155 -156 -166 -8 -3
-33 -20 -55 -37 -22 -16 -55 -39 -72 -51 -18 -11 -33 -24 -33 -29 0 -5 -7 -9
-15 -9 -8 0 -15 -4 -15 -10 0 -5 -5 -10 -11 -10 -5 0 -42 -24 -82 -53 -72 -53
-168 -117 -197 -130 -81 -38 -155 -88 -158 -107 -3 -21 0 -20 65 16 109 60
214 125 268 164 28 20 113 81 190 135 198 140 221 160 278 245 173 258 302
414 409 494 66 49 140 35 438 -84 104 -41 135 -58 126 -68 -3 -2 4 -16 14 -30
11 -13 20 -31 20 -39 0 -8 -28 -44 -62 -79 -52 -54 -66 -64 -87 -59 -14 3 -80
10 -146 15 -151 13 -187 20 -182 33 2 7 23 17 46 24 36 10 50 10 84 -3 23 -8
51 -18 62 -20 19 -5 18 -4 -2 14 -13 11 -23 23 -23 26 0 3 35 24 78 45 46 24
69 40 56 41 -26 0 -84 -23 -134 -55 l-38 -24 -7 52 c-7 51 -32 114 -41 104 -3
-2 0 -24 5 -48 19 -79 15 -96 -21 -102 -18 -4 -43 -9 -55 -13 -19 -5 -23 -3
-23 18 0 34 -29 114 -46 129 -18 14 -18 17 6 -61 21 -70 26 -120 10 -120 -5 0
-32 9 -60 20 -61 24 -100 26 -52 3 36 -19 41 -30 15 -36 -14 -3 -12 -5 7 -9
66 -15 176 -30 290 -39 216 -18 235 -28 234 -121 -1 -61 -1 -62 13 -33 l14 30
-5 -44 c-2 -24 -15 -77 -28 -118 l-23 -75 -47 5 c-26 2 -59 12 -74 21 l-26 18
48 23 49 22 -72 -5 -72 -5 -21 34 -22 34 4 -33 c6 -43 -21 -50 -91 -22 -58 23
-60 11 -3 -20 l37 -19 -70 -1 c-75 -1 -67 -12 18 -25 37 -6 44 -10 40 -24 -14
-38 -61 -87 -147 -151 -93 -69 -139 -89 -211 -91 l-40 -1 42 -10 c23 -6 57 -8
77 -4 43 8 139 72 216 143 32 29 60 53 64 53 20 0 -5 -29 -100 -113 -112 -101
-194 -152 -262 -163 -37 -6 -42 -4 -43 12 0 11 -3 14 -6 6 -3 -7 -31 -26 -63
-42 -95 -48 -185 -123 -374 -311 -146 -146 -175 -179 -155 -179 18 0 72 48
209 185 102 102 188 185 192 185 5 0 19 10 32 21 51 44 142 88 182 89 47 0
174 46 174 62 0 4 5 8 11 8 11 0 115 86 155 128 12 12 26 22 33 22 6 0 10 3 8
8 -1 4 8 17 21 30 20 20 25 21 45 8 34 -21 94 -28 133 -16 19 6 34 16 34 21 0
5 6 9 13 9 6 0 25 11 41 25 16 13 38 27 50 31 39 12 56 35 56 78 0 34 5 44 29
61 36 24 51 54 51 103 0 20 7 46 15 56 20 26 20 110 0 130 -8 8 -15 18 -15 23
0 4 -9 14 -20 21 -16 10 -18 16 -10 32 5 10 10 28 10 40 0 26 -28 81 -49 97
-32 25 -154 77 -296 126 -190 65 -207 68 -263 40z m608 -388 c25 -41 27 -63 3
-44 -15 12 -16 12 -9 -6 20 -49 19 -57 -10 -81 -39 -32 -51 -30 -58 10 -4 19
-18 45 -31 58 l-24 23 41 42 c22 23 47 39 54 36 8 -3 23 -20 34 -38z m-10
-180 c0 -26 -23 -64 -48 -81 l-25 -16 7 38 c9 48 66 100 66 59z m-80 -157 c0
-27 -16 -55 -26 -46 -6 7 14 68 22 68 2 0 4 -10 4 -22z m-217 -22 l37 -34 -29
-7 c-29 -6 -93 14 -105 33 -7 11 30 42 50 42 6 0 28 -15 47 -34z m-61 -56 c42
-18 46 -18 106 -2 46 12 65 13 73 5 8 -8 -3 -19 -42 -42 -30 -17 -61 -31 -69
-31 -8 0 -43 13 -77 30 -47 21 -61 33 -57 45 8 19 12 19 66 -5z"/>
</g>
</svg>
